<svg width="34" height="34" viewBox="0 0 34 34" fill="none" xmlns="http://www.w3.org/2000/svg">
   <path fill-rule="evenodd" clip-rule="evenodd" d="M7.9347 19.4583C11.6643 16.9395 14.7307 15.1198 19.0283 13.627C22.2427 12.5105 26.1404 11.6344 29.5671 11.4395L33.6293 11.2587C33.648 11.0206 28.2793 9.39284 27.7376 9.2534C21.2362 7.57981 13.2097 7.53517 6.81113 9.40404C6.38076 10.2225 5.55511 11.2742 5.03398 12.1516C4.43607 13.1583 4.01105 14.1153 3.50679 15.1575C3.41551 15.3463 3.38834 15.4951 3.40779 15.622C3.45667 15.9391 3.7972 16.1191 4.15862 16.4431C4.93004 17.1343 7.21001 19.2259 7.9347 19.4583Z" fill="#F78B1F"/>
   <path fill-rule="evenodd" clip-rule="evenodd" d="M4.46763 22.3489C5.02829 21.8523 5.56898 21.3657 6.14064 20.8804C6.69502 20.4098 7.42979 19.9327 7.93488 19.4586C7.21008 19.2262 4.93011 17.1345 4.1588 16.4433C3.79727 16.1194 3.45675 15.9394 3.40797 15.6223C3.38841 15.4954 3.41569 15.3466 3.50697 15.1578C4.01112 14.1156 4.43614 13.1585 5.03405 12.1519C5.55518 11.2745 6.38083 10.2228 6.8112 9.4043C4.82771 9.77634 1.91865 11.0692 0 11.8652C0.186885 12.3655 1.68587 14.0008 2.13291 14.4515C2.81119 15.1353 2.95774 15.356 3.19628 15.6477C2.07436 18.5557 1.35635 21.3957 1.33423 25.5573C1.44784 25.6353 2.62585 24.1488 2.854 23.9289C3.39603 23.4065 3.90224 22.8498 4.46763 22.3489Z" fill="#F6BF86"/>
</svg>
